<svg xmlns="http://www.w3.org/2000/svg" xmlns:xlink="http://www.w3.org/1999/xlink" width="2045.506" height="1376.722" viewBox="0 0 2045.506 1376.722">
  <defs>
    <clipPath id="clip-path">
      <rect id="長方形_6" data-name="長方形 6" width="2045.506" height="1376.722" transform="translate(0 -0.002)" fill="none"/>
    </clipPath>
    <linearGradient id="linear-gradient" y1="1" x2="0.987" gradientUnits="objectBoundingBox">
      <stop offset="0" stop-color="#7200ff"/>
      <stop offset="1" stop-color="#50d2ff"/>
    </linearGradient>
    <linearGradient id="linear-gradient-2" x1="1" y1="0" x2="0" y2="1" xlink:href="#linear-gradient"/>
    <linearGradient id="linear-gradient-4" y1="1" x2="1" xlink:href="#linear-gradient"/>
  </defs>
  <g id="bg" transform="translate(0 0.002)">
    <g id="グループ_5" data-name="グループ 5" clip-path="url(#clip-path)">
      <path id="合体_14" data-name="合体 14" d="M103.577-701.485l-.049-.049a3.381,3.381,0,0,1,0-4.78l.084-.084a3.381,3.381,0,0,1,4.78,0l.048.049a3.379,3.379,0,0,1,0,4.78l-.082.082a3.37,3.37,0,0,1-2.391.991A3.367,3.367,0,0,1,103.577-701.485Zm9.9-9.9-.049-.049a3.381,3.381,0,0,1,0-4.78L124.514-727.3a3.379,3.379,0,0,1,4.78,0l.048.048a3.379,3.379,0,0,1,0,4.781L118.26-711.387a3.371,3.371,0,0,1-2.391.99A3.368,3.368,0,0,1,113.479-711.387ZM138-735.909l-.048-.049a3.381,3.381,0,0,1,0-4.78l36.629-36.629a3.38,3.38,0,0,1,4.781,0l.049.048a3.381,3.381,0,0,1,0,4.78l-36.629,36.63a3.371,3.371,0,0,1-2.391.99A3.371,3.371,0,0,1,138-735.909ZM74.038-767.1l-.048-.048a3.38,3.38,0,0,1,0-4.781l11.084-11.083a3.379,3.379,0,0,1,4.78,0l.048.049a3.379,3.379,0,0,1,0,4.78L78.818-767.1a3.37,3.37,0,0,1-2.39.99A3.37,3.37,0,0,1,74.038-767.1ZM99.7-792.762l-.048-.049a3.379,3.379,0,0,1,0-4.78l.083-.082a3.379,3.379,0,0,1,4.78,0l.049.049a3.381,3.381,0,0,1,0,4.78l-.083.083a3.37,3.37,0,0,1-2.39.99A3.37,3.37,0,0,1,99.7-792.762Zm102.846-7.688-.049-.049a3.382,3.382,0,0,1,0-4.781L232.1-834.887l.039-.039.034-.033,4.673-4.673L271.2-873.986a3.382,3.382,0,0,1,4.781,0l.049.049a3.379,3.379,0,0,1,0,4.78L243.952-837.08l-6.861,6.862-.039.04-.083.083-.041.04L207.323-800.45a3.371,3.371,0,0,1-2.391.99A3.368,3.368,0,0,1,202.542-800.45ZM162.548-805.2l-.048-.049a3.379,3.379,0,0,1,0-4.78l.082-.083a3.38,3.38,0,0,1,4.781,0l.048.049a3.379,3.379,0,0,1,0,4.78l-.083.083a3.369,3.369,0,0,1-2.39.99A3.369,3.369,0,0,1,162.548-805.2Zm-43.394-7.022-.048-.047a3.38,3.38,0,0,1,0-4.781l36.63-36.63a3.379,3.379,0,0,1,4.78,0l.049.049a3.381,3.381,0,0,1,0,4.78l-36.629,36.629a3.371,3.371,0,0,1-2.391.99A3.371,3.371,0,0,1,119.155-812.221Zm55.385-4.97-.048-.048a3.38,3.38,0,0,1,0-4.782L185.575-833.1a3.379,3.379,0,0,1,4.781,0l.048.048a3.379,3.379,0,0,1,0,4.78l-11.083,11.083a3.37,3.37,0,0,1-2.39.99A3.37,3.37,0,0,1,174.54-817.191Zm23.6-23.6-.047-.048a3.378,3.378,0,0,1,0-4.78l14.194-14.2.049-.05,22.385-22.385,14.245-14.245a3.38,3.38,0,0,1,4.781,0l.048.049a3.379,3.379,0,0,1,0,4.78l-14.2,14.2-.043.044-15.374,15.373-.028.029-.083.084-.053.052-21.092,21.092a3.368,3.368,0,0,1-2.39.99A3.372,3.372,0,0,1,198.135-840.788Zm-26.992-23.42-.048-.049a3.379,3.379,0,0,1,0-4.78l.083-.082a3.378,3.378,0,0,1,4.78,0l.048.048a3.38,3.38,0,0,1,0,4.781l-.083.083a3.37,3.37,0,0,1-2.39.99A3.37,3.37,0,0,1,171.143-864.208ZM183.135-876.2l-.049-.048a3.38,3.38,0,0,1,0-4.781l11.083-11.083a3.382,3.382,0,0,1,4.781,0l.049.05a3.378,3.378,0,0,1,0,4.779L187.915-876.2a3.368,3.368,0,0,1-2.39.99A3.37,3.37,0,0,1,183.135-876.2Zm97.588-2.432-.048-.048a3.379,3.379,0,0,1,0-4.78l.083-.084a3.381,3.381,0,0,1,4.78,0l.049.049a3.381,3.381,0,0,1,0,4.78l-.082.082a3.369,3.369,0,0,1-2.391.991A3.37,3.37,0,0,1,280.723-878.632Zm-17.712-27.03-.049-.049a3.379,3.379,0,0,1,0-4.78l36.63-36.63a3.381,3.381,0,0,1,4.78,0l.048.049a3.379,3.379,0,0,1,0,4.78l-36.628,36.629a3.371,3.371,0,0,1-2.39.99A3.371,3.371,0,0,1,263.011-905.662Zm-25.146-25.269-.048-.048a3.379,3.379,0,0,1,0-4.78l.083-.084a3.381,3.381,0,0,1,4.78,0l.049.049a3.381,3.381,0,0,1,0,4.78l-.082.082a3.369,3.369,0,0,1-2.391.991A3.369,3.369,0,0,1,237.865-930.931ZM315-957.65l-.049-.049a3.381,3.381,0,0,1,0-4.78l.083-.082a3.379,3.379,0,0,1,4.781,0l.048.048a3.379,3.379,0,0,1,0,4.78l-.083.083a3.37,3.37,0,0,1-2.39.99A3.368,3.368,0,0,1,315-957.65Zm11.992-11.992-.048-.048a3.38,3.38,0,0,1,0-4.782l11.083-11.082a3.378,3.378,0,0,1,4.78,0l.049.048a3.382,3.382,0,0,1,0,4.781L331.77-969.641a3.368,3.368,0,0,1-2.39.99A3.37,3.37,0,0,1,326.99-969.641Zm30.458-30.459-.048-.049a3.379,3.379,0,0,1,0-4.78l.083-.083a3.38,3.38,0,0,1,4.781,0l.048.049a3.381,3.381,0,0,1,0,4.78l-.083.084a3.371,3.371,0,0,1-2.39.99A3.371,3.371,0,0,1,357.448-1000.1Z" transform="translate(1633.766 1215.083)" fill="#c2efff" stroke="rgba(0,0,0,0)" stroke-miterlimit="10" stroke-width="1"/>
      <path id="合体_10" data-name="合体 10" d="M74.038-701.486l-.048-.049a3.379,3.379,0,0,1,0-4.78l.082-.084a3.382,3.382,0,0,1,4.781,0l.049.049a3.381,3.381,0,0,1,0,4.78l-.083.083a3.37,3.37,0,0,1-2.39.99A3.37,3.37,0,0,1,74.038-701.486ZM93.5-720.944l-.048-.049a3.38,3.38,0,0,1,0-4.781l11.084-11.083a3.379,3.379,0,0,1,4.78,0l.049.048a3.381,3.381,0,0,1,0,4.782L98.277-720.944a3.371,3.371,0,0,1-2.391.99A3.371,3.371,0,0,1,93.5-720.944Zm22.992-22.992-.048-.049a3.379,3.379,0,0,1,0-4.78l.083-.083a3.379,3.379,0,0,1,4.78,0l.048.049a3.379,3.379,0,0,1,0,4.78l-.082.083a3.368,3.368,0,0,1-2.39.99A3.371,3.371,0,0,1,116.488-743.936Zm15.442-15.44-.048-.049a3.379,3.379,0,0,1,0-4.78l36.628-36.629a3.383,3.383,0,0,1,4.782,0l.048.049a3.379,3.379,0,0,1,0,4.78l-36.629,36.63a3.371,3.371,0,0,1-2.39.99A3.371,3.371,0,0,1,131.93-759.377Zm61.691-11.278-.048-.049a3.379,3.379,0,0,1,0-4.78l.082-.083a3.38,3.38,0,0,1,4.781,0l.049.049a3.381,3.381,0,0,1,0,4.78l-.083.084a3.371,3.371,0,0,1-2.39.99A3.371,3.371,0,0,1,193.621-770.655Zm-11.062-39.352-.048-.049a3.379,3.379,0,0,1,0-4.78l36.629-36.629.045-.044,14.2-14.2a3.38,3.38,0,0,1,4.781,0l.048.048a3.379,3.379,0,0,1,0,4.78l-36.629,36.63-.04.039-14.2,14.205a3.371,3.371,0,0,1-2.391.99A3.371,3.371,0,0,1,182.559-810.007Zm54.792-4.379-.048-.049a3.379,3.379,0,0,1,0-4.78L248.386-830.3a3.38,3.38,0,0,1,4.781,0l.049.048a3.38,3.38,0,0,1,0,4.781l-11.083,11.083a3.373,3.373,0,0,1-2.391.99A3.371,3.371,0,0,1,237.351-814.386Zm-86.588-8.568-.048-.049a3.379,3.379,0,0,1,0-4.78l.082-.083a3.38,3.38,0,0,1,4.781,0l.049.049a3.381,3.381,0,0,1,0,4.78l-.083.084a3.371,3.371,0,0,1-2.39.99A3.371,3.371,0,0,1,150.763-822.954Zm9.557-9.557-.049-.049a3.379,3.379,0,0,1,0-4.78l32.069-32.07.009-.009,36.629-36.63a3.38,3.38,0,0,1,4.781,0l.049.049a3.381,3.381,0,0,1,0,4.78l-32.035,32.035-.044.045L165.1-832.511a3.369,3.369,0,0,1-2.39.99A3.371,3.371,0,0,1,160.32-832.511Zm100.023-4.867-.048-.049a3.379,3.379,0,0,1,0-4.78l.083-.083a3.379,3.379,0,0,1,4.78,0l.048.049a3.379,3.379,0,0,1,0,4.78l-.082.083a3.372,3.372,0,0,1-2.391.99A3.369,3.369,0,0,1,260.343-837.378Zm15.441-15.441-.049-.049a3.381,3.381,0,0,1,0-4.78l36.629-36.629a3.38,3.38,0,0,1,4.781,0l.049.048a3.382,3.382,0,0,1,0,4.781l-36.629,36.629a3.372,3.372,0,0,1-2.391.99A3.368,3.368,0,0,1,275.784-852.819Zm-29.839-20.575-.048-.049a3.379,3.379,0,0,1,0-4.78l11.083-11.083a3.38,3.38,0,0,1,4.781,0l.049.049a3.38,3.38,0,0,1,0,4.781l-11.083,11.083a3.371,3.371,0,0,1-2.391.99A3.371,3.371,0,0,1,245.946-873.394Zm22.992-22.992-.048-.049a3.379,3.379,0,0,1,0-4.78l.083-.083a3.379,3.379,0,0,1,4.78,0l.048.049a3.379,3.379,0,0,1,0,4.78l-.082.083a3.372,3.372,0,0,1-2.391.99A3.369,3.369,0,0,1,268.938-896.387Zm62.851-12.436-.048-.049a3.379,3.379,0,0,1,0-4.78l.083-.083a3.379,3.379,0,0,1,4.78,0l.049.049a3.381,3.381,0,0,1,0,4.78l-.082.084a3.372,3.372,0,0,1-2.391.99A3.372,3.372,0,0,1,331.789-908.823Zm14.659-14.659-.047-.049a3.379,3.379,0,0,1,0-4.78l11.082-11.083a3.379,3.379,0,0,1,4.78,0l.05.048a3.38,3.38,0,0,1,0,4.781l-11.084,11.083a3.369,3.369,0,0,1-2.39.99A3.372,3.372,0,0,1,346.448-923.482Zm-89.51-5.648-.049-.048a3.381,3.381,0,0,1,0-4.78l36.629-36.63a3.38,3.38,0,0,1,4.781,0l.049.049a3.381,3.381,0,0,1,0,4.78L261.719-929.13a3.37,3.37,0,0,1-2.39.99A3.37,3.37,0,0,1,256.938-929.13ZM307.007-979.2l-.049-.048a3.382,3.382,0,0,1,0-4.781l11.083-11.083a3.382,3.382,0,0,1,4.781,0l.048.049a3.379,3.379,0,0,1,0,4.78L311.787-979.2a3.369,3.369,0,0,1-2.39.99A3.369,3.369,0,0,1,307.007-979.2Zm20.9-20.9-.048-.049a3.379,3.379,0,0,1,0-4.78l.082-.083a3.38,3.38,0,0,1,4.781,0l.049.049a3.381,3.381,0,0,1,0,4.78l-.084.084a3.369,3.369,0,0,1-2.39.99A3.371,3.371,0,0,1,327.909-1000.1Z" transform="translate(-73 2038.188)" fill="#c2efff" stroke="rgba(0,0,0,0)" stroke-miterlimit="10" stroke-width="1"/>
      <path id="合体_11" data-name="合体 11" d="M73.68-849.609l-.032-.031a2.213,2.213,0,0,1,0-3.129l.054-.054a2.213,2.213,0,0,1,3.129,0l.032.032a2.212,2.212,0,0,1,0,3.128l-.054.054a2.205,2.205,0,0,1-1.564.648A2.205,2.205,0,0,1,73.68-849.609Zm12.738-12.738-.031-.031a2.213,2.213,0,0,1,0-3.129l7.255-7.255a2.211,2.211,0,0,1,3.129,0l.031.031a2.212,2.212,0,0,1,0,3.13l-7.255,7.255a2.206,2.206,0,0,1-1.565.648A2.206,2.206,0,0,1,86.418-862.347ZM101.471-877.4l-.032-.032a2.213,2.213,0,0,1,0-3.129l.054-.054a2.213,2.213,0,0,1,3.129,0l.032.032a2.213,2.213,0,0,1,0,3.129l-.055.054a2.2,2.2,0,0,1-1.563.648A2.205,2.205,0,0,1,101.471-877.4Zm10.108-10.108-.032-.032a2.213,2.213,0,0,1,0-3.129l23.979-23.979a2.214,2.214,0,0,1,3.13,0l.031.032a2.212,2.212,0,0,1,0,3.128l-23.98,23.98a2.205,2.205,0,0,1-1.564.648A2.205,2.205,0,0,1,111.578-887.506Zm40.386-7.384-.032-.031a2.213,2.213,0,0,1,0-3.129l.056-.054a2.211,2.211,0,0,1,3.128,0l.033.032a2.213,2.213,0,0,1,0,3.128l-.055.054a2.206,2.206,0,0,1-1.565.648A2.206,2.206,0,0,1,151.964-894.89Zm-7.242-25.761-.031-.032a2.212,2.212,0,0,1,0-3.128l9.3-9.3.028-.028,23.979-23.979a2.214,2.214,0,0,1,3.13,0l.032.031a2.215,2.215,0,0,1,0,3.129l-9.327,9.327-23.979,23.979a2.206,2.206,0,0,1-1.565.648A2.206,2.206,0,0,1,144.722-920.651Zm35.87-2.867-.032-.031a2.213,2.213,0,0,1,0-3.129l7.255-7.255a2.214,2.214,0,0,1,3.13,0l.032.031a2.214,2.214,0,0,1,0,3.13l-7.256,7.255a2.206,2.206,0,0,1-1.565.648A2.206,2.206,0,0,1,180.592-923.518Zm15.051-15.052-.031-.032a2.212,2.212,0,0,1,0-3.128l.054-.054a2.212,2.212,0,0,1,3.128,0l.032.031a2.213,2.213,0,0,1,0,3.129l-.054.054a2.206,2.206,0,0,1-1.565.648A2.206,2.206,0,0,1,195.643-938.57Zm10.109-10.108-.032-.032a2.212,2.212,0,0,1,0-3.128l23.979-23.98a2.214,2.214,0,0,1,3.13,0l.031.032a2.212,2.212,0,0,1,0,3.128l-23.979,23.98a2.206,2.206,0,0,1-1.565.648A2.206,2.206,0,0,1,205.752-948.677Zm-19.533-13.47-.032-.031a2.215,2.215,0,0,1,0-3.129l7.254-7.255a2.212,2.212,0,0,1,3.13,0l.033.031a2.216,2.216,0,0,1,0,3.13l-7.257,7.255a2.2,2.2,0,0,1-1.564.648A2.206,2.206,0,0,1,186.219-962.148Zm15.05-15.051-.031-.032a2.212,2.212,0,0,1,0-3.128l.054-.054a2.212,2.212,0,0,1,3.128,0l.032.031a2.213,2.213,0,0,1,0,3.129l-.054.054a2.206,2.206,0,0,1-1.565.648A2.208,2.208,0,0,1,201.269-977.2Zm41.146-8.142-.032-.032a2.211,2.211,0,0,1,0-3.129l.053-.054a2.213,2.213,0,0,1,3.129,0l.032.031a2.213,2.213,0,0,1,0,3.129l-.054.054a2.206,2.206,0,0,1-1.565.648A2.206,2.206,0,0,1,242.415-985.341Zm9.6-9.6-.031-.032a2.212,2.212,0,0,1,0-3.128l7.255-7.256a2.213,2.213,0,0,1,3.13,0l.031.031a2.212,2.212,0,0,1,0,3.13l-7.255,7.255a2.206,2.206,0,0,1-1.565.648A2.208,2.208,0,0,1,252.011-994.937Z" transform="translate(1421.128 1755.161)" fill="#85dfff" stroke="rgba(0,0,0,0)" stroke-miterlimit="10" stroke-width="1"/>
      <path id="合体_15" data-name="合体 15" d="M73.68-886.172l-.032-.031a2.213,2.213,0,0,1,0-3.129l.054-.054a2.213,2.213,0,0,1,3.129,0l.032.032a2.212,2.212,0,0,1,0,3.128l-.054.054a2.205,2.205,0,0,1-1.564.648A2.205,2.205,0,0,1,73.68-886.172Zm6.255-6.256-.032-.031a2.213,2.213,0,0,1,0-3.129l22.49-22.489,2.994-2.995.032-.033.054-.054.033-.032,19.375-19.376a2.213,2.213,0,0,1,3.129,0l.031.032a2.213,2.213,0,0,1,0,3.129L108.636-918l-.054.054-4.517,4.517-.009.009L83.065-892.427a2.205,2.205,0,0,1-1.564.648A2.208,2.208,0,0,1,79.935-892.427Zm63.251-63.251-.031-.031a2.213,2.213,0,0,1,0-3.129l23.979-23.979a2.213,2.213,0,0,1,3.129,0l.032.032a2.213,2.213,0,0,1,0,3.129l-23.98,23.979a2.205,2.205,0,0,1-1.564.648A2.208,2.208,0,0,1,143.186-955.679Zm32.778-32.777-.031-.031a2.212,2.212,0,0,1,0-3.13l7.255-7.255a2.213,2.213,0,0,1,3.129,0l.031.032a2.212,2.212,0,0,1,0,3.128l-7.255,7.255a2.205,2.205,0,0,1-1.565.649A2.2,2.2,0,0,1,175.964-988.456Zm13.684-13.684-.032-.032a2.212,2.212,0,0,1,0-3.128l.054-.053a2.211,2.211,0,0,1,3.129,0l.032.031a2.213,2.213,0,0,1,0,3.129l-.054.054a2.206,2.206,0,0,1-1.565.648A2.206,2.206,0,0,1,189.648-1002.139Z" transform="translate(606.191 1475.947)" fill="#85dfff" stroke="rgba(0,0,0,0)" stroke-miterlimit="10" stroke-width="1"/>
      <path id="合体_8" data-name="合体 8" d="M74.409-901.695l-.066-.066a4.587,4.587,0,0,1,0-6.486l.112-.112a4.587,4.587,0,0,1,6.486,0l.066.066a4.587,4.587,0,0,1,0,6.486l-.112.113a4.572,4.572,0,0,1-3.243,1.343A4.572,4.572,0,0,1,74.409-901.695ZM87.845-915.13l-.067-.066a4.587,4.587,0,0,1,0-6.486l15.04-15.038a4.584,4.584,0,0,1,6.485,0l.065.065a4.586,4.586,0,0,1,0,6.487L94.331-915.13a4.57,4.57,0,0,1-3.242,1.343A4.572,4.572,0,0,1,87.845-915.13ZM121.119-948.4l-.066-.067a4.586,4.586,0,0,1,0-6.485l49.7-49.7a4.588,4.588,0,0,1,6.487,0l.065.066a4.587,4.587,0,0,1,0,6.486l-49.7,49.7a4.572,4.572,0,0,1-3.243,1.343A4.572,4.572,0,0,1,121.119-948.4Z" transform="translate(138.974 1163.521)" fill="#85dfff" stroke="rgba(0,0,0,0)" stroke-miterlimit="10" stroke-width="1"/>
      <path id="合体_16" data-name="合体 16" d="M73.583-871.748l-.027-.027a1.9,1.9,0,0,1,0-2.686l.047-.047a1.9,1.9,0,0,1,2.686,0l.027.028a1.9,1.9,0,0,1,0,2.686l-.046.047a1.894,1.894,0,0,1-1.344.556A1.9,1.9,0,0,1,73.583-871.748Zm10.935-10.934-.027-.028a1.9,1.9,0,0,1,0-2.686l6.228-6.228a1.9,1.9,0,0,1,2.687,0l.027.027a1.9,1.9,0,0,1,0,2.686l-6.228,6.229a1.9,1.9,0,0,1-1.344.555A1.9,1.9,0,0,1,84.518-882.682ZM97.439-895.6l-.027-.028a1.9,1.9,0,0,1,0-2.687l.046-.046a1.9,1.9,0,0,1,2.687,0l.027.027a1.9,1.9,0,0,1,0,2.686l-.046.047a1.9,1.9,0,0,1-1.344.555A1.9,1.9,0,0,1,97.439-895.6Zm8.677-8.677-.027-.028a1.9,1.9,0,0,1,0-2.686l20.585-20.585a1.9,1.9,0,0,1,2.686,0l.027.028a1.9,1.9,0,0,1,0,2.686L108.8-904.28a1.9,1.9,0,0,1-1.344.555A1.9,1.9,0,0,1,106.116-904.28Zm34.669-6.339-.027-.027a1.9,1.9,0,0,1,0-2.687l.046-.047a1.9,1.9,0,0,1,2.687,0l.027.028a1.9,1.9,0,0,1,0,2.686l-.046.047a1.9,1.9,0,0,1-1.344.556A1.9,1.9,0,0,1,140.785-910.619Zm-6.216-22.115-.027-.028a1.9,1.9,0,0,1,0-2.686l8.006-8.005,20.585-20.585a1.9,1.9,0,0,1,2.687,0l.027.028a1.9,1.9,0,0,1,0,2.687l-20.584,20.585-.054.051-7.952,7.953a1.893,1.893,0,0,1-1.343.556A1.893,1.893,0,0,1,134.569-932.734Zm30.792-2.461-.027-.028a1.9,1.9,0,0,1,0-2.687l6.228-6.228a1.9,1.9,0,0,1,2.687,0l.027.027a1.9,1.9,0,0,1,0,2.687l-6.228,6.229a1.9,1.9,0,0,1-1.343.555A1.9,1.9,0,0,1,165.361-935.195Zm12.921-12.92-.027-.028a1.9,1.9,0,0,1,0-2.686l.046-.046a1.9,1.9,0,0,1,2.686,0l.027.027a1.9,1.9,0,0,1,0,2.686l-.046.047a1.893,1.893,0,0,1-1.343.556A1.894,1.894,0,0,1,178.282-948.115Zm8.678-8.678-.027-.028a1.9,1.9,0,0,1,0-2.686l20.585-20.584a1.9,1.9,0,0,1,2.686,0l.027.027a1.9,1.9,0,0,1,0,2.686l-20.584,20.585a1.893,1.893,0,0,1-1.343.556A1.894,1.894,0,0,1,186.96-956.793Zm-16.769-11.563-.027-.028a1.9,1.9,0,0,1,0-2.686l6.228-6.228a1.9,1.9,0,0,1,2.686,0l.027.027a1.9,1.9,0,0,1,0,2.686l-6.228,6.229a1.893,1.893,0,0,1-1.343.556A1.894,1.894,0,0,1,170.191-968.356Zm12.92-12.92-.027-.028a1.9,1.9,0,0,1,0-2.687l.046-.045a1.9,1.9,0,0,1,2.687,0l.027.027a1.9,1.9,0,0,1,0,2.687l-.046.047a1.9,1.9,0,0,1-1.344.555A1.9,1.9,0,0,1,183.111-981.275Zm35.321-6.99-.027-.028a1.9,1.9,0,0,1,0-2.686l.046-.046a1.9,1.9,0,0,1,2.687,0l.027.027a1.9,1.9,0,0,1,0,2.686l-.046.047a1.893,1.893,0,0,1-1.343.556A1.893,1.893,0,0,1,218.433-988.266Zm8.238-8.238-.027-.028a1.9,1.9,0,0,1,0-2.687l6.228-6.228a1.9,1.9,0,0,1,2.687,0l.027.027a1.9,1.9,0,0,1,0,2.687l-6.228,6.229a1.9,1.9,0,0,1-1.344.555A1.9,1.9,0,0,1,226.67-996.5Z" transform="translate(161.169 1636.827)" fill="#c2efff" stroke="rgba(0,0,0,0)" stroke-miterlimit="10" stroke-width="1"/>
      <path id="合体_7" data-name="合体 7" d="M73.41-914.126a1.4,1.4,0,0,1,0-1.98,1.4,1.4,0,0,1,1.98,0,1.4,1.4,0,0,1,0,1.98,1.4,1.4,0,0,1-.99.41A1.4,1.4,0,0,1,73.41-914.126Zm6.884-6.884a1.4,1.4,0,0,1,0-1.98,1.4,1.4,0,0,1,1.98,0,1.4,1.4,0,0,1,0,1.98,1.4,1.4,0,0,1-.991.41A1.392,1.392,0,0,1,80.294-921.01Zm6.883-6.883a1.4,1.4,0,0,1,0-1.98,1.4,1.4,0,0,1,1.98,0,1.4,1.4,0,0,1,0,1.98,1.4,1.4,0,0,1-.991.41A1.392,1.392,0,0,1,87.178-927.893Zm6.883-6.884a1.4,1.4,0,0,1,0-1.98,1.4,1.4,0,0,1,1.98,0,1.4,1.4,0,0,1,0,1.98,1.394,1.394,0,0,1-.99.41A1.394,1.394,0,0,1,94.061-934.777Zm6.883-6.883a1.4,1.4,0,0,1,0-1.98,1.4,1.4,0,0,1,1.981,0,1.4,1.4,0,0,1,0,1.98,1.4,1.4,0,0,1-.991.41A1.394,1.394,0,0,1,100.944-941.66Zm6.884-6.884a1.4,1.4,0,0,1,0-1.98,1.4,1.4,0,0,1,1.98,0,1.4,1.4,0,0,1,0,1.98,1.4,1.4,0,0,1-.99.41A1.394,1.394,0,0,1,107.828-948.544Zm6.884-6.882a1.4,1.4,0,0,1,0-1.98,1.4,1.4,0,0,1,1.98,0,1.4,1.4,0,0,1,0,1.98,1.4,1.4,0,0,1-.99.41A1.4,1.4,0,0,1,114.712-955.427Zm6.883-6.884a1.4,1.4,0,0,1,0-1.98,1.4,1.4,0,0,1,1.98,0,1.4,1.4,0,0,1,0,1.98,1.4,1.4,0,0,1-.99.41A1.4,1.4,0,0,1,121.6-962.311Zm6.884-6.883a1.4,1.4,0,0,1,0-1.98,1.4,1.4,0,0,1,1.98,0,1.4,1.4,0,0,1,0,1.98,1.4,1.4,0,0,1-.991.41A1.392,1.392,0,0,1,128.48-969.194Zm6.882-6.884a1.4,1.4,0,0,1,0-1.98,1.4,1.4,0,0,1,1.98,0,1.4,1.4,0,0,1,0,1.98,1.394,1.394,0,0,1-.99.41A1.394,1.394,0,0,1,135.362-976.078Zm6.884-6.883a1.4,1.4,0,0,1,0-1.981,1.4,1.4,0,0,1,1.98,0,1.4,1.4,0,0,1,0,1.981,1.394,1.394,0,0,1-.99.41A1.394,1.394,0,0,1,142.246-982.961Zm6.883-6.884a1.4,1.4,0,0,1,0-1.98,1.4,1.4,0,0,1,1.98,0,1.4,1.4,0,0,1,0,1.98,1.4,1.4,0,0,1-.99.41A1.4,1.4,0,0,1,149.129-989.845Zm6.884-6.884a1.4,1.4,0,0,1,0-1.979,1.4,1.4,0,0,1,1.98,0,1.4,1.4,0,0,1,0,1.979,1.4,1.4,0,0,1-.99.41A1.4,1.4,0,0,1,156.013-996.729Zm6.884-6.882a1.4,1.4,0,0,1,0-1.98,1.4,1.4,0,0,1,1.98,0,1.4,1.4,0,0,1,0,1.98,1.4,1.4,0,0,1-.99.41A1.394,1.394,0,0,1,162.9-1003.612Z" transform="translate(374.251 1274.283)" fill="#001dff" stroke="rgba(0,0,0,0)" stroke-miterlimit="10" stroke-width="1"/>
      <path id="合体_6" data-name="合体 6" d="M73.41-914.126a1.4,1.4,0,0,1,0-1.98,1.4,1.4,0,0,1,1.98,0,1.4,1.4,0,0,1,0,1.98,1.4,1.4,0,0,1-.99.41A1.4,1.4,0,0,1,73.41-914.126Zm6.883-6.883a1.4,1.4,0,0,1,0-1.98,1.4,1.4,0,0,1,1.98,0,1.4,1.4,0,0,1,0,1.98,1.4,1.4,0,0,1-.991.41A1.392,1.392,0,0,1,80.294-921.009Zm6.884-6.884a1.4,1.4,0,0,1,0-1.98,1.4,1.4,0,0,1,1.98,0,1.4,1.4,0,0,1,0,1.98,1.4,1.4,0,0,1-.991.41A1.392,1.392,0,0,1,87.178-927.893Zm6.882-6.883a1.4,1.4,0,0,1,0-1.98,1.4,1.4,0,0,1,1.98,0,1.4,1.4,0,0,1,0,1.98,1.394,1.394,0,0,1-.99.41A1.4,1.4,0,0,1,94.06-934.776Zm6.884-6.884a1.4,1.4,0,0,1,0-1.98,1.4,1.4,0,0,1,1.98,0,1.4,1.4,0,0,1,0,1.98,1.394,1.394,0,0,1-.99.41A1.4,1.4,0,0,1,100.944-941.66Zm6.883-6.882a1.4,1.4,0,0,1,0-1.98,1.4,1.4,0,0,1,1.98,0,1.4,1.4,0,0,1,0,1.98,1.4,1.4,0,0,1-.99.409A1.4,1.4,0,0,1,107.827-948.542Zm6.884-6.884a1.4,1.4,0,0,1,0-1.98,1.4,1.4,0,0,1,1.98,0,1.4,1.4,0,0,1,0,1.98,1.4,1.4,0,0,1-.99.41A1.4,1.4,0,0,1,114.711-955.427Zm6.884-6.883a1.4,1.4,0,0,1,0-1.98,1.4,1.4,0,0,1,1.98,0,1.4,1.4,0,0,1,0,1.98,1.4,1.4,0,0,1-.991.41A1.392,1.392,0,0,1,121.6-962.31Zm6.883-6.884a1.4,1.4,0,0,1,0-1.98,1.4,1.4,0,0,1,1.98,0,1.4,1.4,0,0,1,0,1.98,1.4,1.4,0,0,1-.99.41A1.4,1.4,0,0,1,128.479-969.194Zm6.884-6.883a1.4,1.4,0,0,1,0-1.981,1.4,1.4,0,0,1,1.98,0,1.4,1.4,0,0,1,0,1.981,1.4,1.4,0,0,1-.991.41A1.392,1.392,0,0,1,135.363-976.077Zm6.882-6.884a1.4,1.4,0,0,1,0-1.98,1.4,1.4,0,0,1,1.98,0,1.4,1.4,0,0,1,0,1.98,1.4,1.4,0,0,1-.99.41A1.4,1.4,0,0,1,142.245-982.961Zm6.884-6.884a1.4,1.4,0,0,1,0-1.98,1.4,1.4,0,0,1,1.98,0,1.4,1.4,0,0,1,0,1.98,1.4,1.4,0,0,1-.99.41A1.4,1.4,0,0,1,149.129-989.845Zm6.883-6.882a1.4,1.4,0,0,1,0-1.98,1.4,1.4,0,0,1,1.98,0,1.4,1.4,0,0,1,0,1.98,1.4,1.4,0,0,1-.99.409A1.4,1.4,0,0,1,156.012-996.728Zm6.884-6.884a1.4,1.4,0,0,1,0-1.98,1.4,1.4,0,0,1,1.98,0,1.4,1.4,0,0,1,0,1.98,1.4,1.4,0,0,1-.991.41A1.392,1.392,0,0,1,162.9-1003.612Z" transform="translate(383.431 1283.462)" fill="#001dff" stroke="rgba(0,0,0,0)" stroke-miterlimit="10" stroke-width="1"/>
      <path id="合体_13" data-name="合体 13" d="M91.974-806.061a2.77,2.77,0,0,1,0-3.918,2.77,2.77,0,0,1,3.918,0,2.77,2.77,0,0,1,0,3.918,2.762,2.762,0,0,1-1.959.811A2.762,2.762,0,0,1,91.974-806.061Zm13.619-13.619a2.77,2.77,0,0,1,0-3.918,2.769,2.769,0,0,1,3.918,0,2.77,2.77,0,0,1,0,3.918,2.762,2.762,0,0,1-1.959.811A2.762,2.762,0,0,1,105.592-819.68Zm-31.781-4.542a2.77,2.77,0,0,1,0-3.918,2.77,2.77,0,0,1,3.918,0,2.77,2.77,0,0,1,0,3.918,2.762,2.762,0,0,1-1.959.811A2.762,2.762,0,0,1,73.812-824.222Zm45.4-9.077a2.771,2.771,0,0,1,0-3.919,2.771,2.771,0,0,1,3.919,0,2.771,2.771,0,0,1,0,3.919,2.764,2.764,0,0,1-1.96.811A2.762,2.762,0,0,1,119.211-833.3Zm-31.781-4.543a2.77,2.77,0,0,1,0-3.918,2.769,2.769,0,0,1,3.918,0,2.77,2.77,0,0,1,0,3.918,2.762,2.762,0,0,1-1.959.811A2.762,2.762,0,0,1,87.431-837.841Zm45.4-9.077a2.77,2.77,0,0,1,0-3.918,2.771,2.771,0,0,1,3.919,0,2.77,2.77,0,0,1,0,3.918,2.76,2.76,0,0,1-1.959.812A2.763,2.763,0,0,1,132.83-846.919Zm-31.781-4.541a2.773,2.773,0,0,1,0-3.919,2.773,2.773,0,0,1,3.92,0,2.773,2.773,0,0,1,0,3.919,2.765,2.765,0,0,1-1.96.811A2.762,2.762,0,0,1,101.049-851.46Zm45.4-9.077a2.769,2.769,0,0,1,0-3.918,2.77,2.77,0,0,1,3.918,0,2.77,2.77,0,0,1,0,3.918,2.762,2.762,0,0,1-1.959.811A2.762,2.762,0,0,1,146.451-860.538Zm-31.782-4.542a2.77,2.77,0,0,1,0-3.918,2.771,2.771,0,0,1,3.919,0,2.77,2.77,0,0,1,0,3.918,2.761,2.761,0,0,1-1.959.812A2.763,2.763,0,0,1,114.669-865.08Zm45.4-9.076a2.77,2.77,0,0,1,0-3.918,2.769,2.769,0,0,1,3.918,0,2.769,2.769,0,0,1,0,3.918,2.762,2.762,0,0,1-1.959.811A2.762,2.762,0,0,1,160.07-874.156ZM128.289-878.7a2.769,2.769,0,0,1,0-3.918,2.77,2.77,0,0,1,3.918,0,2.77,2.77,0,0,1,0,3.918,2.762,2.762,0,0,1-1.959.811A2.762,2.762,0,0,1,128.289-878.7Zm45.4-9.077a2.771,2.771,0,0,1,0-3.919,2.77,2.77,0,0,1,3.918,0,2.77,2.77,0,0,1,0,3.919,2.762,2.762,0,0,1-1.959.811A2.762,2.762,0,0,1,173.688-887.775Zm-31.781-4.543a2.77,2.77,0,0,1,0-3.918,2.769,2.769,0,0,1,3.918,0,2.769,2.769,0,0,1,0,3.918,2.762,2.762,0,0,1-1.959.811A2.762,2.762,0,0,1,141.908-892.319Zm45.4-9.077a2.77,2.77,0,0,1,0-3.918,2.771,2.771,0,0,1,3.919,0,2.77,2.77,0,0,1,0,3.918,2.762,2.762,0,0,1-1.959.812A2.762,2.762,0,0,1,187.307-901.4Zm-31.78-4.541a2.771,2.771,0,0,1,0-3.919,2.771,2.771,0,0,1,3.919,0,2.771,2.771,0,0,1,0,3.919,2.763,2.763,0,0,1-1.959.811A2.763,2.763,0,0,1,155.527-905.937Zm45.4-9.077a2.77,2.77,0,0,1,0-3.918,2.77,2.77,0,0,1,3.918,0,2.77,2.77,0,0,1,0,3.918,2.762,2.762,0,0,1-1.959.811A2.762,2.762,0,0,1,200.928-915.015Zm-31.781-4.542a2.769,2.769,0,0,1,0-3.918,2.77,2.77,0,0,1,3.918,0,2.77,2.77,0,0,1,0,3.918,2.761,2.761,0,0,1-1.959.812A2.76,2.76,0,0,1,169.147-919.557Zm45.4-9.077a2.77,2.77,0,0,1,0-3.918,2.769,2.769,0,0,1,3.918,0,2.769,2.769,0,0,1,0,3.918,2.762,2.762,0,0,1-1.959.811A2.762,2.762,0,0,1,214.547-928.634Zm-31.781-4.542a2.77,2.77,0,0,1,0-3.918,2.77,2.77,0,0,1,3.918,0,2.77,2.77,0,0,1,0,3.918,2.762,2.762,0,0,1-1.959.811A2.762,2.762,0,0,1,182.766-933.176Zm45.4-9.076a2.771,2.771,0,0,1,0-3.919,2.771,2.771,0,0,1,3.919,0,2.771,2.771,0,0,1,0,3.919,2.764,2.764,0,0,1-1.96.811A2.762,2.762,0,0,1,228.165-942.252ZM196.385-946.8a2.77,2.77,0,0,1,0-3.918,2.769,2.769,0,0,1,3.918,0,2.77,2.77,0,0,1,0,3.918,2.762,2.762,0,0,1-1.959.811A2.762,2.762,0,0,1,196.385-946.8Zm45.4-9.077a2.772,2.772,0,0,1,0-3.918,2.773,2.773,0,0,1,3.92,0,2.772,2.772,0,0,1,0,3.918,2.761,2.761,0,0,1-1.959.812A2.763,2.763,0,0,1,241.784-955.873ZM210-960.414a2.771,2.771,0,0,1,0-3.919,2.771,2.771,0,0,1,3.919,0,2.771,2.771,0,0,1,0,3.919,2.764,2.764,0,0,1-1.96.811A2.762,2.762,0,0,1,210-960.414Zm45.4-9.077a2.77,2.77,0,0,1,0-3.918,2.77,2.77,0,0,1,3.918,0,2.77,2.77,0,0,1,0,3.918,2.762,2.762,0,0,1-1.959.811A2.762,2.762,0,0,1,255.4-969.492Zm-31.782-4.542a2.77,2.77,0,0,1,0-3.918,2.771,2.771,0,0,1,3.919,0,2.77,2.77,0,0,1,0,3.918,2.761,2.761,0,0,1-1.959.812A2.763,2.763,0,0,1,223.623-974.034Zm45.4-9.077a2.77,2.77,0,0,1,0-3.918,2.769,2.769,0,0,1,3.918,0,2.77,2.77,0,0,1,0,3.918,2.762,2.762,0,0,1-1.959.811A2.762,2.762,0,0,1,269.023-983.111Zm-31.781-4.542a2.77,2.77,0,0,1,0-3.919,2.772,2.772,0,0,1,3.918,0,2.771,2.771,0,0,1,0,3.919,2.763,2.763,0,0,1-1.959.811A2.763,2.763,0,0,1,237.243-987.653Zm13.619-13.62a2.77,2.77,0,0,1,0-3.918,2.769,2.769,0,0,1,3.918,0,2.77,2.77,0,0,1,0,3.918,2.762,2.762,0,0,1-1.959.811A2.762,2.762,0,0,1,250.862-1001.273Z" transform="translate(1771.754 1766.734)" fill="#001dff" stroke="rgba(0,0,0,0)" stroke-miterlimit="10" stroke-width="1"/>
      <path id="合体_12" data-name="合体 12" d="M99.7-724.654a3.9,3.9,0,0,1,0-5.513,3.9,3.9,0,0,1,5.513,0,3.9,3.9,0,0,1,0,5.513,3.884,3.884,0,0,1-2.757,1.142A3.886,3.886,0,0,1,99.7-724.654Zm19.165-19.165a3.9,3.9,0,0,1,0-5.513,3.9,3.9,0,0,1,5.512,0,3.9,3.9,0,0,1,0,5.513,3.887,3.887,0,0,1-2.757,1.143A3.886,3.886,0,0,1,118.863-743.819ZM74.141-750.21a3.9,3.9,0,0,1,0-5.513,3.9,3.9,0,0,1,5.514,0,3.9,3.9,0,0,1,0,5.513,3.886,3.886,0,0,1-2.757,1.142A3.891,3.891,0,0,1,74.141-750.21Zm63.886-12.773a3.9,3.9,0,0,1,0-5.513,3.9,3.9,0,0,1,5.513,0,3.9,3.9,0,0,1,0,5.513,3.888,3.888,0,0,1-2.758,1.142A3.885,3.885,0,0,1,138.027-762.983Zm-44.72-6.393a3.9,3.9,0,0,1,0-5.513,3.9,3.9,0,0,1,5.512,0,3.9,3.9,0,0,1,0,5.513,3.883,3.883,0,0,1-2.757,1.143A3.882,3.882,0,0,1,93.307-769.376Zm63.884-12.77a3.9,3.9,0,0,1,0-5.514,3.9,3.9,0,0,1,5.514,0,3.9,3.9,0,0,1,0,5.514A3.888,3.888,0,0,1,159.948-781,3.892,3.892,0,0,1,157.19-782.146Zm-44.72-6.394a3.9,3.9,0,0,1,0-5.513,3.9,3.9,0,0,1,5.513,0,3.9,3.9,0,0,1,0,5.513,3.884,3.884,0,0,1-2.757,1.142A3.887,3.887,0,0,1,112.47-788.539Zm63.886-12.773a3.9,3.9,0,0,1,0-5.513,3.9,3.9,0,0,1,5.512,0,3.9,3.9,0,0,1,0,5.513,3.886,3.886,0,0,1-2.757,1.142A3.885,3.885,0,0,1,176.356-801.312ZM131.635-807.7a3.9,3.9,0,0,1,0-5.514,3.9,3.9,0,0,1,5.513,0,3.9,3.9,0,0,1,0,5.514,3.885,3.885,0,0,1-2.757,1.141A3.886,3.886,0,0,1,131.635-807.7Zm63.885-12.773a3.9,3.9,0,0,1,0-5.513,3.9,3.9,0,0,1,5.513,0,3.9,3.9,0,0,1,0,5.513,3.888,3.888,0,0,1-2.758,1.142A3.885,3.885,0,0,1,195.52-820.476ZM150.8-826.868a3.9,3.9,0,0,1,0-5.513,3.9,3.9,0,0,1,5.514,0,3.9,3.9,0,0,1,0,5.513,3.886,3.886,0,0,1-2.757,1.141A3.887,3.887,0,0,1,150.8-826.868Zm63.887-12.772a3.9,3.9,0,0,1,0-5.513,3.9,3.9,0,0,1,5.512,0,3.9,3.9,0,0,1,0,5.513,3.885,3.885,0,0,1-2.757,1.142A3.885,3.885,0,0,1,214.685-839.64Zm-44.722-6.393a3.9,3.9,0,0,1,0-5.513,3.9,3.9,0,0,1,5.513,0,3.9,3.9,0,0,1,0,5.513,3.886,3.886,0,0,1-2.757,1.142A3.885,3.885,0,0,1,169.963-846.032Zm63.886-12.773a3.9,3.9,0,0,1,0-5.513,3.9,3.9,0,0,1,5.513,0,3.9,3.9,0,0,1,0,5.513,3.886,3.886,0,0,1-2.757,1.142A3.885,3.885,0,0,1,233.849-858.805Zm-44.72-6.391a3.9,3.9,0,0,1,0-5.513,3.9,3.9,0,0,1,5.512,0,3.9,3.9,0,0,1,0,5.513,3.886,3.886,0,0,1-2.757,1.142A3.883,3.883,0,0,1,189.129-865.2Zm63.884-12.773a3.9,3.9,0,0,1,0-5.513,3.9,3.9,0,0,1,5.513,0,3.9,3.9,0,0,1,0,5.513,3.887,3.887,0,0,1-2.757,1.142A3.885,3.885,0,0,1,253.013-877.969Zm-44.721-6.393a3.9,3.9,0,0,1,0-5.513,3.9,3.9,0,0,1,5.514,0,3.9,3.9,0,0,1,0,5.513,3.887,3.887,0,0,1-2.757,1.142A3.888,3.888,0,0,1,208.292-884.362Zm63.887-12.772a3.9,3.9,0,0,1,0-5.512,3.9,3.9,0,0,1,5.513,0,3.9,3.9,0,0,1,0,5.512,3.887,3.887,0,0,1-2.757,1.143A3.886,3.886,0,0,1,272.178-897.134Zm-44.722-6.392a3.9,3.9,0,0,1,0-5.513,3.9,3.9,0,0,1,5.513,0,3.9,3.9,0,0,1,0,5.513,3.886,3.886,0,0,1-2.757,1.142A3.887,3.887,0,0,1,227.456-903.525ZM291.341-916.3a3.9,3.9,0,0,1,0-5.514,3.9,3.9,0,0,1,5.513,0,3.9,3.9,0,0,1,0,5.513,3.888,3.888,0,0,1-2.758,1.142A3.888,3.888,0,0,1,291.341-916.3Zm-44.72-6.392a3.9,3.9,0,0,1,0-5.513,3.9,3.9,0,0,1,5.513,0,3.9,3.9,0,0,1,0,5.513,3.886,3.886,0,0,1-2.757,1.142A3.886,3.886,0,0,1,246.621-922.689Zm63.885-12.773a3.9,3.9,0,0,1,0-5.513,3.9,3.9,0,0,1,5.513,0,3.9,3.9,0,0,1,0,5.513,3.887,3.887,0,0,1-2.757,1.142A3.886,3.886,0,0,1,310.505-935.462Zm-44.721-6.392a3.9,3.9,0,0,1,0-5.514,3.9,3.9,0,0,1,5.513,0,3.9,3.9,0,0,1,0,5.513,3.888,3.888,0,0,1-2.758,1.142A3.886,3.886,0,0,1,265.784-941.854Zm63.887-12.773a3.9,3.9,0,0,1,0-5.513,3.9,3.9,0,0,1,5.513,0,3.9,3.9,0,0,1,0,5.513,3.887,3.887,0,0,1-2.757,1.143A3.886,3.886,0,0,1,329.671-954.626Zm-44.721-6.392a3.9,3.9,0,0,1,0-5.513,3.9,3.9,0,0,1,5.512,0,3.9,3.9,0,0,1,0,5.513,3.886,3.886,0,0,1-2.757,1.142A3.885,3.885,0,0,1,284.95-961.018Zm63.885-12.773a3.9,3.9,0,0,1,0-5.513,3.9,3.9,0,0,1,5.513,0,3.9,3.9,0,0,1,0,5.513,3.888,3.888,0,0,1-2.758,1.142A3.885,3.885,0,0,1,348.835-973.791Zm-44.721-6.392a3.9,3.9,0,0,1,0-5.513,3.9,3.9,0,0,1,5.512,0,3.9,3.9,0,0,1,0,5.513,3.883,3.883,0,0,1-2.757,1.143A3.882,3.882,0,0,1,304.114-980.183Zm19.165-19.164a3.9,3.9,0,0,1,0-5.514,3.9,3.9,0,0,1,5.513,0,3.9,3.9,0,0,1,0,5.514,3.885,3.885,0,0,1-2.757,1.141A3.885,3.885,0,0,1,323.278-999.346Z" transform="translate(358.246 2015.643)" fill="#001dff" stroke="rgba(0,0,0,0)" stroke-miterlimit="10" stroke-width="1"/>
      <path id="合体_1" data-name="合体 1" d="M73.68-874.548l-.032-.032a2.212,2.212,0,0,1,0-3.128l.054-.054a2.213,2.213,0,0,1,3.129,0l.032.031a2.213,2.213,0,0,1,0,3.129l-.054.054a2.205,2.205,0,0,1-1.564.648A2.205,2.205,0,0,1,73.68-874.548Zm12.738-12.74-.032-.031a2.213,2.213,0,0,1,0-3.129l7.256-7.255a2.211,2.211,0,0,1,3.129,0l.031.032a2.211,2.211,0,0,1,0,3.129l-7.255,7.255a2.206,2.206,0,0,1-1.565.648A2.206,2.206,0,0,1,86.418-887.288Zm15.051-15.051-.032-.032a2.213,2.213,0,0,1,0-3.129l.054-.054a2.212,2.212,0,0,1,3.128,0l.032.031a2.213,2.213,0,0,1,0,3.129l-.054.054a2.206,2.206,0,0,1-1.565.648A2.206,2.206,0,0,1,101.469-902.338Zm10.11-10.109-.032-.032a2.212,2.212,0,0,1,0-3.128l23.979-23.98a2.214,2.214,0,0,1,3.13,0l.031.032a2.213,2.213,0,0,1,0,3.129l-23.98,23.979a2.205,2.205,0,0,1-1.564.648A2.205,2.205,0,0,1,111.578-912.447Zm33.143-33.144-.031-.031a2.213,2.213,0,0,1,0-3.129l23.979-23.979.038-.037,9.288-9.288a2.214,2.214,0,0,1,3.13,0l.031.031a2.213,2.213,0,0,1,0,3.129l-23.979,23.979-.038.037-9.288,9.288a2.206,2.206,0,0,1-1.565.648A2.206,2.206,0,0,1,144.722-945.591Zm41.5-41.5-.032-.032a2.211,2.211,0,0,1,0-3.129l7.254-7.255a2.212,2.212,0,0,1,3.13,0l.032.031a2.212,2.212,0,0,1,0,3.13l-7.255,7.255a2.2,2.2,0,0,1-1.564.648A2.208,2.208,0,0,1,186.218-987.087Zm15.052-15.052-.031-.031a2.213,2.213,0,0,1,0-3.129l.054-.054a2.212,2.212,0,0,1,3.128,0l.032.031a2.213,2.213,0,0,1,0,3.129l-.054.054a2.206,2.206,0,0,1-1.565.648A2.206,2.206,0,0,1,201.27-1002.139Z" transform="translate(735.584 2025.835)" fill="#85dfff" stroke="rgba(0,0,0,0)" stroke-miterlimit="10" stroke-width="1"/>
      <path id="パス_204" data-name="パス 204" d="M863.3,529.336,335.758,1056.877a.5.5,0,1,1-.707-.707L862.592,528.629a.5.5,0,0,1,.707.707" fill="url(#linear-gradient)"/>
      <path id="パス_207" data-name="パス 207" d="M600.853,822.862l527.541-527.541a.5.5,0,1,1,.707.707L876.039,549.09,601.56,823.569a.5.5,0,0,1-.707-.707" fill="url(#linear-gradient-2)"/>
      <path id="パス_208" data-name="パス 208" d="M600.853,822.862l527.541-527.541a.5.5,0,1,1,.707.707L876.039,549.09,601.56,823.569a.5.5,0,0,1-.707-.707" transform="translate(-515.707 -295.177)" fill="url(#linear-gradient-2)"/>
      <path id="パス_209" data-name="パス 209" d="M1129.1,296.029,601.56,823.57a.5.5,0,0,1-.707-.707L853.915,569.8l274.479-274.479a.5.5,0,1,1,.707.707" transform="translate(647.293 552.823)" fill="url(#linear-gradient-4)"/>
      <path id="パス_210" data-name="パス 210" d="M1129.1,296.029,601.56,823.57a.5.5,0,0,1-.707-.707L853.915,569.8l274.479-274.479a.5.5,0,1,1,.707.707" transform="translate(722.289 -273.177)" fill="url(#linear-gradient-4)"/>
      <path id="パス_211" data-name="パス 211" d="M600.853,822.862l527.541-527.541a.5.5,0,1,1,.707.707L876.039,549.09,601.56,823.569a.5.5,0,0,1-.707-.707" transform="translate(961.289 -598.177)" fill="url(#linear-gradient-2)"/>
    </g>
  </g>
</svg>
